<svg width="48" height="48" viewBox="0 0 48 48" fill="none" xmlns="http://www.w3.org/2000/svg">
  <!-- Trophy base -->
  <rect x="8" y="40" width="32" height="4" rx="2" fill="#1FA363"/>
  <rect x="16" y="34" width="16" height="8" rx="1" fill="#1FA363"/>

  <!-- Trophy cup -->
  <path d="M12 10C12 8.89543 12.8954 8 14 8H34C35.1046 8 36 8.89543 36 10V24C36 30.6274 30.6274 36 24 36C17.3726 36 12 30.6274 12 24V10Z" fill="#1FA363"/>

  <!-- Trophy handles -->
  <path d="M12 14H8C6.89543 14 6 14.8954 6 16V18C6 20.2091 7.79086 22 10 22H12" stroke="#1FA363" stroke-width="3" stroke-linecap="round"/>
  <path d="M36 14H40C41.1046 14 42 14.8954 42 16V18C42 20.2091 40.2091 22 38 22H36" stroke="#1FA363" stroke-width="3" stroke-linecap="round"/>

  <!-- Star in trophy -->
  <path d="M24 13L26 18.5H32L27.5 22L29.5 28L24 24L18.5 28L20.5 22L16 18.5H22L24 13Z" fill="white"/>
</svg>
